<svg xmlns="http://www.w3.org/2000/svg" viewBox="0 0 14.784 14.043">
  <defs>
    <style>
      .cls-1 {
        fill: #3acce1;
      }
    </style>
  </defs>
  <path id="path" class="cls-1" d="M967.853,775.607l-3.23-3.23a2.974,2.974,0,0,1,0-4.307l5.383,5.383Zm5.153-1.461-1.154,1.154,5.306,5.306-1.077,1.077-5.23-5.306-5.306,5.306-1.077-1.077,7.537-7.537a2.923,2.923,0,0,1-.154-2,4.17,4.17,0,0,1,1.23-2.076,4.314,4.314,0,0,1,2.461-1.307,2.355,2.355,0,0,1,2.23.692,2.556,2.556,0,0,1,.692,2.23,4.082,4.082,0,0,1-1.307,2.538,4.021,4.021,0,0,1-2.076,1.154A3.147,3.147,0,0,1,973.005,774.146Z" transform="translate(-963.7 -767.64)"/>
</svg>
