<svg xmlns="http://www.w3.org/2000/svg" viewBox="0 0 16 13.954">
  <defs>
    <style>
      .cls-1 {
        fill: #ff4f9a;
      }
    </style>
  </defs>
  <path id="path" class="cls-1" d="M752.063,1154.514h3.507a.749.749,0,0,1,.731.731c-.219.877-.584,2.192-1.023,3.872s-.731,2.7-.877,3.142a1.338,1.338,0,0,1-1.388,1.1h-9.5a1.338,1.338,0,0,1-1.388-1.1l-1.826-6.795v-.219a.749.749,0,0,1,.731-.731h3.507l3.215-4.822a.665.665,0,0,1,.584-.292c.219,0,.511.073.584.292Zm-5.991,0h4.384l-2.192-3.215Zm1.169,5.406a1.412,1.412,0,1,0-.438-1.023A1.442,1.442,0,0,0,747.241,1159.921Z" transform="translate(-740.3 -1149.4)"/>
</svg>
