<svg xmlns="http://www.w3.org/2000/svg" viewBox="0 0 12.346 14.784">
  <defs>
    <style>
      .cls-1 {
        fill: #ff9057;
      }
    </style>
  </defs>
  <path id="path" class="cls-1" d="M482.747,1013.466a.927.927,0,0,1,1.6.679v4.321a.928.928,0,0,1-.247.679.927.927,0,0,1-1.6-.679v-4.321A.843.843,0,0,1,482.747,1013.466Zm8.086-3.889a3.427,3.427,0,0,1,1.543,2.963h-7.407a3.37,3.37,0,0,1,1.481-2.963l-.8-.8a.306.306,0,1,1,.432-.432l.926.926a3.708,3.708,0,0,1,1.667-.432,2.992,2.992,0,0,1,1.6.432l.926-.926a.306.306,0,1,1,.432.432Zm-5.864,9.753v-6.173h7.407v6.173a.633.633,0,0,1-.617.617h-.617v2.161a.928.928,0,0,1-.247.679.927.927,0,0,1-1.6-.679v-2.161h-1.235v2.161a.928.928,0,0,1-.247.679.927.927,0,0,1-1.6-.679v-2.161h-.617a.633.633,0,0,1-.617-.617Zm2.469-8.025v-.617h-.617v.617Zm3.086,0v-.617h-.617v.617Zm2.716,2.161a.927.927,0,0,1,1.6.679v4.321a.928.928,0,0,1-.247.679.927.927,0,0,1-1.6-.679v-4.321A.843.843,0,0,1,493.241,1013.466Z" transform="translate(-482.5 -1008.25)"/>
</svg>
