<svg xmlns="http://www.w3.org/2000/svg" viewBox="0 0 17.523 17.75">
  <defs>
    <style>
      .cls-1 {
        fill: none;
      }

      .cls-2, .cls-3 {
        stroke: none;
      }

      .cls-3 {
        fill: #3497fd;
      }
    </style>
  </defs>
  <g id="Баллы" class="cls-1" transform="translate(-503.566 -587.453)">
    <path class="cls-2" d="M519.153,596.033a1.441,1.441,0,0,1,0,2.065l-5.083,5.162a1.389,1.389,0,0,1-2.033,0l-6.535-6.637a1.349,1.349,0,0,1-.436-1.032v-5.162a1.5,1.5,0,0,1,1.452-1.475H511.6a1.309,1.309,0,0,1,1.016.443Zm-12.344-3.687a1.23,1.23,0,0,0,1.574.282,1.272,1.272,0,0,0,.547-1.525,1.24,1.24,0,0,0-1.384-.812,1.257,1.257,0,0,0-1.027,1.243A1.017,1.017,0,0,0,506.809,592.346Zm9.367,6.416a1.857,1.857,0,0,0,.581-1.327,1.878,1.878,0,0,0-1.134-1.7,1.827,1.827,0,0,0-1.988.371l-.581.59-.508-.59a1.828,1.828,0,0,0-2.614,0,1.9,1.9,0,0,0,0,2.655l3.122,3.171Z"/>
    <path class="cls-3" d="M 513.0535888671875 603.7030029296875 C 513.4378662109375 603.7030029296875 513.8052368164063 603.5430297851563 514.0701904296875 603.2603759765625 L 519.1529541015625 598.0980224609375 C 519.43115234375 597.8289184570313 519.5887451171875 597.455810546875 519.5887451171875 597.0655517578125 C 519.5887451171875 596.6753540039063 519.4312744140625 596.3021240234375 519.1529541015625 596.0330810546875 L 512.617919921875 589.3958740234375 C 512.367431640625 589.1133422851563 512.0110473632813 588.952880859375 511.6378784179688 588.952880859375 C 511.6257629394531 588.952880859375 511.6135864257813 588.9530639648438 511.6014404296875 588.953369140625 L 506.5186767578125 588.9531860351563 C 505.7249145507813 588.97314453125 505.0860595703125 589.6219482421875 505.0664672851563 590.42822265625 L 505.0664672851563 595.590576171875 C 505.0556640625 595.98291015625 505.2149658203125 596.3603515625 505.5021362304688 596.623046875 L 512.0370483398438 603.2604370117188 C 512.302001953125 603.5430297851563 512.66943359375 603.7030029296875 513.0535888671875 603.7030029296875 M 511.2383117675781 595.556640625 C 511.7113647460938 595.556640625 512.1845092773438 595.739990234375 512.5453491210938 596.106689453125 L 513.0536499023438 596.6967163085938 L 513.634521484375 596.106689453125 C 513.9849243164063 595.768310546875 514.4432983398438 595.5897216796875 514.9088134765625 595.5897216796875 C 515.1493530273438 595.5897216796875 515.391845703125 595.637451171875 515.622314453125 595.7354125976563 C 516.2987670898438 596.0230712890625 516.743896484375 596.6895751953125 516.7567749023438 597.4342651367188 C 516.7501831054688 597.9388427734375 516.5402221679688 598.4186401367188 516.1759033203125 598.76171875 L 513.0536499023438 601.9327392578125 L 509.9312133789063 598.7618408203125 C 509.2092895507813 598.0286254882813 509.2092895507813 596.8397827148438 509.9312133789063 596.1065063476563 C 510.2922058105469 595.7399291992188 510.7652282714844 595.556640625 511.2383117675781 595.556640625 M 507.7626342773438 590.2719116210938 C 508.2771301269531 590.2719116210938 508.7490539550781 590.5975341796875 508.9299926757813 591.1030883789063 C 509.13623046875 591.6788330078125 508.905517578125 592.3219604492188 508.3829345703125 592.6281127929688 C 508.1884460449219 592.7420654296875 507.9744262695313 592.797119140625 507.7623291015625 592.797119140625 C 507.4046020507813 592.797119140625 507.0524291992188 592.6404418945313 506.80908203125 592.3456420898438 C 506.5973510742188 592.1332397460938 506.4907836914063 591.8353881835938 506.5186767578125 591.5344848632813 C 506.5186767578125 590.9217529296875 506.9519653320313 590.3974609375 507.546142578125 590.2911987304688 C 507.6187133789063 590.2781982421875 507.6910705566406 590.2719116210938 507.7626342773438 590.2719116210938 M 513.0535888671875 605.2030029296875 C 512.2655639648438 605.2030029296875 511.5030212402344 604.875 510.9578247070313 604.3023071289063 L 504.45556640625 597.6981201171875 C 503.8739318847656 597.1482543945313 503.5512084960938 596.3778076171875 503.5664672851563 595.5737915039063 L 503.5664672851563 590.42822265625 L 503.5664672851563 590.4099731445313 L 503.56689453125 590.3917846679688 C 503.6059875488281 588.7843627929688 504.885986328125 587.4937744140625 506.48095703125 587.4536743164063 L 506.4998474121094 587.4531860351563 L 506.5187377929688 587.4531860351563 L 511.5846252441406 587.453369140625 C 511.6023864746094 587.4530639648438 511.6201477050781 587.452880859375 511.6378784179688 587.452880859375 C 512.4243774414063 587.452880859375 513.176513671875 587.7850952148438 513.708984375 588.3660278320313 L 520.211181640625 594.9699096679688 C 520.7691650390625 595.517578125 521.0887451171875 596.2800903320313 521.0887451171875 597.0655517578125 C 521.0887451171875 597.8506469726563 520.7692260742188 598.6130981445313 520.21142578125 599.1609497070313 L 515.1494140625 604.3023071289063 C 514.6041870117188 604.875 513.8416748046875 605.2030029296875 513.0535888671875 605.2030029296875 Z M 511.2383117675781 597.056640625 C 511.1755676269531 597.056640625 511.0833129882813 597.0744018554688 511.0000305175781 597.158935546875 C 510.8531799316406 597.30810546875 510.8531494140625 597.5602416992188 511.0000610351563 597.70947265625 L 513.0535888671875 599.7948608398438 L 515.1070556640625 597.7092895507813 L 515.126953125 597.6890869140625 L 515.1475830078125 597.669677734375 C 515.2105712890625 597.6103515625 515.2493896484375 597.5265502929688 515.2559204101563 597.43701171875 C 515.245361328125 597.2935791015625 515.16064453125 597.1690673828125 515.0353393554688 597.1157836914063 C 514.9946899414063 597.0985107421875 514.9520874023438 597.0897216796875 514.9088134765625 597.0897216796875 C 514.8268432617188 597.0897216796875 514.747802734375 597.1209106445313 514.6849975585938 597.177734375 L 514.12255859375 597.7490234375 L 512.9801025390625 598.9094848632813 L 511.917236328125 597.67578125 L 511.4535827636719 597.1375732421875 C 511.3767700195313 597.0712890625 511.2953186035156 597.056640625 511.2383117675781 597.056640625 Z"/>
  </g>
</svg>
